<svg id="Layer_1" data-name="Layer 1" xmlns="http://www.w3.org/2000/svg" width="127" height="127" viewBox="0 0 127 127"><defs><style>.cls-1{fill:#333;stroke:#fff;stroke-miterlimit:10;stroke-width:4px;}.cls-2{fill:#bdbdbd;}.cls-3{fill:#fff;}</style></defs><circle class="cls-1" cx="63.5" cy="63.5" r="61.5"/><path class="cls-2" d="M120.78,65.47c0-.07,0-.21-.09-.18l0,.25Z"/><path class="cls-2" d="M120.17,65a.64.64,0,0,0-.11.57c.08-.24.11-.14.2-.43.08,0,.15.07.14.16,0-.07.14,0,.17-.11-.13-.19-.26-.19-.4,0A.25.25,0,0,1,120.17,65Z"/><path class="cls-2" d="M112.19,63.81l0,0S112.2,63.81,112.19,63.81Z"/><path class="cls-2" d="M107.4,62.27a.06.06,0,0,0,.07,0S107.4,62.25,107.4,62.27Z"/><path class="cls-2" d="M106.66,61.75l0,0S106.68,61.74,106.66,61.75Z"/><path class="cls-2" d="M112.19,63.81l-.11-.11C112.05,63.77,112.13,63.77,112.19,63.81Z"/><path class="cls-2" d="M119.05,65.7a.18.18,0,0,0,.08-.07l-.07,0Z"/><path class="cls-2" d="M114.38,64.08h0l.06-.1Z"/><path class="cls-2" d="M116,64.3s-.07.19-.1.28a.21.21,0,0,1,.1-.13A.38.38,0,0,0,116,64.3Z"/><path class="cls-2" d="M118.66,64.85l0,0Z"/><path class="cls-2" d="M113.21,63.8v-.07A.09.09,0,0,0,113.21,63.8Z"/><path class="cls-2" d="M66.47,64.57l0,0S66.46,64.56,66.47,64.57Z"/><polygon class="cls-2" points="65.54 62.46 65.57 62.47 65.65 62.39 65.54 62.46"/><path class="cls-2" d="M105.23,61h0S105.26,61,105.23,61Z"/><path class="cls-2" d="M90.51,59.73c.21.14-.21.31.08.45C90.55,60.1,90.74,59.8,90.51,59.73Z"/><path class="cls-2" d="M119,65.68h0Z"/><path class="cls-2" d="M90.59,60.18Z"/><path class="cls-2" d="M101.65,60.14a.3.3,0,0,0,0,.1A.24.24,0,0,0,101.65,60.14Z"/><path class="cls-2" d="M104.22,61.16l-.06,0A.13.13,0,0,0,104.22,61.16Z"/><path class="cls-2" d="M100.19,60.11s0-.06-.09,0a0,0,0,0,0,0,0S100.16,60.07,100.19,60.11Z"/><polygon class="cls-2" points="98.73 59.83 98.75 59.88 98.8 59.87 98.73 59.83"/><path class="cls-2" d="M71,66.25a1.77,1.77,0,0,1,0-.2C71,66.2,70.71,66.2,71,66.25Z"/><path class="cls-2" d="M119.05,65.58a.16.16,0,0,1,0,.1l0,0A.19.19,0,0,0,119.05,65.58Z"/><path class="cls-2" d="M99.79,61.72l-.21-.07A.58.58,0,0,0,99.79,61.72Z"/><path class="cls-2" d="M81.68,64.58l-.05,0S81.67,64.61,81.68,64.58Z"/><path class="cls-2" d="M98.92,61.56a.63.63,0,0,0-.1-.17.1.1,0,0,0,0,0Z"/><path class="cls-2" d="M71,66h0Z"/><path class="cls-2" d="M69.21,66.14c.23.09.19-.22.29-.35.29,0,.06.23.12.4.2,0,.4-.25.52-.21s0,.06,0,.11c.23-.17.55.11.81-.12A.11.11,0,0,1,71,66a1.46,1.46,0,0,1,0-.38c.1,0,.21-.13.22.06-.06,0-.07,0-.11.1l.12-.06c.06.28-.16.06-.19.25.22,0,.49-.21.64-.14,0,.26-.38.06-.19.3a.92.92,0,0,1-.24-.13c.13.44-.15-.06,0,.41.34.11.4-.1.73,0,.09-.13,0-.21.08-.34.48-.23.34.66.71.34.1-.16.14-.47.38-.3l-.09.29c.33,0,.18-.42.52-.25,0,.12-.25.11-.2.14.23.22.15-.17.32-.18l0,.26c.35-.06.71-.26,1.08-.33,0,.07-.07.16,0,.23a2.69,2.69,0,0,1,1.49,0l.13-.24s.1.08.06.13c.19,0,0-.13,0-.24s.15.1.1.18c.28-.26.78-.59,1.16-.44l0,.08c.27,0,.17-.5.45-.36l0,.05c.55-.05,1.07-.41,1.57-.21,0-.32.56,0,.46-.46.36.11.3.21.77.21.12,0,.08-.32.2-.4l.08.21.11-.29.18.23.11-.1s-.14-.06-.15-.13a.45.45,0,0,1,.58.09l.41-.35c0,.09,0,.15-.09.23.17-.32.12.21.28-.08,0,0,0-.13,0-.18a.63.63,0,0,0,.6-.13l0,.17c.36-.09.7-.35,1.09-.49-.17,0-.23-.29-.13-.35l.13.21c0-.17-.15,0-.06-.27.15,0,.19.22.14.33l.14-.15c0,.07,0,.12,0,.21,0-.17.39.11.4-.17l0,.06c.38-.14.53-.28.84-.41-.07-.2.07-.2.1-.4a2.68,2.68,0,0,0,.84-.07c.16-.17,0-.19,0-.34.08.18.35.06.26.24a2.53,2.53,0,0,0,.78-.48c-.07-.06-.14-.07-.13-.14s.2,0,.22.1l0,0c.39-.44,1.27.18,1.52-.32v0l.33-.32c.19,0-.07.17.1.25.33-.42.67-.13,1-.42.39.46,1-.21,1.37.07l0-.13c.07-.14.13.06.2.08s-.12-.1-.07-.18a2.14,2.14,0,0,1,1.23-.09c.43.06.85.15,1.26.19s.17-.68.55-.35l-.11.25c.62-.26,1.24,0,1.87-.13,0,.06-.05.13-.11.12.11.2.47.07.49-.08.09,0,0,.14,0,.22s.35-.19.39,0,0,.06-.06.07.38.07.33-.15c.21.12.45,0,.61.14.15-.21.36.18.46-.13-.08.33.34.34.52.21-.07.09.1.13,0,.26.16,0,.32,0,.33-.18.21.46.68-.17.72.37a6.54,6.54,0,0,1,1.46,0c-.1.32-.49-.11-.56.25.45,0,.76-.24,1.15,0,.09.08-.1.13-.15.17.45,0,.78.26,1.2.19,0,0-.06,0-.11.06s.16.1.19-.05l-.08,0c0-.25.42-.36.47-.46-.25.38.33.21,0,.69a.23.23,0,0,0,.16-.17c.06.05.06.11,0,.2.28,0,.24-.18.47-.11,0,.08-.08.09-.13.16.16-.1.33-.2.5-.08,0,0,0,.1-.07.08.34.09.69-.18,1,.07-.21.27.1.14,0,.41h.23l0-.16c.17.06.39-.08.51,0l-.16.07.34.05-.15-.16c.22-.08.09-.34.3-.19-.06,0,.17.06.21.24h0c.12-.05.23-.12.34,0s-.12.29-.11.35c.15-.2.43.07.62-.14a.42.42,0,0,0-.1.22l.13-.16a.17.17,0,0,1,0,.22c.23.11,0-.36.27-.12,0,0,0,0-.08,0,.27.16.6.06.85.23,0,.29-.26,0-.24.25.41.06.91-.09,1.27.08l-.06,0c.16-.37.23.27.47.14,0,0-.12.2-.09.16.24.14.56,0,1,0l-.08.08c.14.13.4.15.56.24.07-.09.16,0,.14-.2.39.7,1.05-.08,1.42.48-.06,0-.15.06-.11.07l.42,0c0-.17,0-.11-.09-.26a.32.32,0,0,1,.29-.13c-.2.08,0,.28,0,.39a1,1,0,0,1,0-.17c.15.35.09-.33.34-.07l0,.08c.11,0,.22-.12.33-.08,0,.2-.12.08-.16.24.17,0,.38-.34.49-.12-.07,0-.17,0-.25.08.13.25.16.2.27.25h0l.26.14-.06-.07c.27-.49.42,0,.73-.35-.29.29-.06.18-.1.4.06.07.16.16.12.22.15-.17.21.17.42-.08,0,.08.14,0,.09.2.18,0,0-.13,0-.22.28-.23.61.33,1,0,.33-.13.4-.38.7-.49.1.13-.09.27-.09.27a.36.36,0,0,0,.44,0c0,.06,0,.11,0,.19s.08-.27.24-.17a.84.84,0,0,1-.11.3c.14-.07.28-.22.43-.29,0,.13-.08.2-.13.28.17-.06.44-.13.48-.34l-.11-.07c.06,0,0,.18,0,.22s-.21-.06-.22-.14l.1-.05c-.13-.42-.42.09-.64.08l.08-.32-.21.27c-.05-.08-.08-.25,0-.3-.15-.15-.13.11-.26-.06s0,0,0-.06l-.15.09c0-.06,0-.22.07-.17-.26-.19-.43.21-.53,0h0c-.37.09,0,.22-.34.48l-.15-.57,0,.22s-.12,0-.1-.12c-.15.15,0,.1-.07.25-.17-.22-.52.08-.53-.3-.08.17.17.16,0,.25,0-.39-.23,0-.38-.16.07-.19.22-.07.07-.27-.14.33-.31-.11-.46-.06,0,.27-.32.07-.56.13,0-.09-.42-.19-.62-.34v0c-.08.27-.3.17-.47.2a.37.37,0,0,1,.18-.28l-.16,0a.23.23,0,0,1-.21.12l.08-.19c-.2,0-.45.16-.69,0,0,.19.1.57-.2.64,0-.1,0-.28.12-.31s-.11.07-.15,0l.15-.15c-.1-.1-.09.13-.18.1s0-.12,0-.23.07.07.12,0a.37.37,0,0,1-.23-.28c0,.09,0,.2-.13.2s0-.19-.13-.3c-.07.09-.17,0-.23.17-.06,0,0-.12,0-.18s-.49-.09-.43.16l0,0h0c-.39.13-.68-.29-1-.3l0-.07c-.22,0-.46-.08-.65,0a.22.22,0,0,1,0-.25c-.17,0-.21.08-.4-.1.19-.08,0-.12.19,0-.18-.12-.19-.25-.47-.11.13-.17-.08-.28-.19-.25l.1.17a.7.7,0,0,1-.29-.09l.12-.23c-.31-.41-.88.27-1-.31-.16.14.19.19,0,.35-.18-.09-.27-.49-.32-.51-.22-.21-.35.28-.59.1a.31.31,0,0,1-.26.35c-.18-.09-.12-.43,0-.46s.06,0,0,.07.16,0,.12-.14l0,.08c-.07-.12-.33-.19-.22-.31-.17,0-.11.12,0,.2-.2-.2-.37-.12-.59-.29,0,.06,0,.17,0,.16-.33-.22-.21.11-.47.07-.1-.17.15-.29-.13-.26-.13-.14,0-.24.12-.29-.28.1-.39-.24-.52-.31l.15,0a.35.35,0,0,1-.21,0l0,.19c-.06,0-.12-.07-.1-.14-.1.09,0,.3-.22.41-.07-.11-.31,0-.28-.23.27.17,0-.24.3-.2-.06,0-.11,0-.18-.06s0,0,0,0c-.22-.29-.21.22-.5.12.08-.11,0-.26,0-.25.12,0,0,.23-.14.3-.16-.16-.23,0-.32,0l.09.08c-.07.11-.16.07-.3.07,0-.1.14,0,.1-.09-.21.18-.26-.33-.51-.23-.07-.12.06-.25,0-.33-.28.1-.2-.25-.48-.18,0,.2,0,.16-.18.28h.43l-.32.18c.12,0,.28,0,.35,0-.17.1-.14.07-.12.22-.09-.3-.37.06-.51-.16l.13-.43c-.24-.27-.57.07-.91-.12l.1.1c-.1.16-.24,0-.38,0a.43.43,0,0,0,0-.32c0,.11-.28-.07-.38.2l-.12-.23c-.29-.15-.44.33-.72.21.12-.14,0-.27.23-.33-.09,0-.17-.08-.2,0,0-.1-.31.15-.37,0-.06.06-.1.21-.21.17a.11.11,0,0,1,0-.07c0,.07-.19.07-.12.24-.22-.51-.85-.12-1-.56-.22,0-.5,0-.69,0,0,0,0-.07,0,0-.25-.17-.22.4-.51.21-.13-.26.18-.11.09-.21,0-.49-.38,0-.56-.29l.06,0c-.15-.18-.41.12-.67.08a.11.11,0,0,0,0-.07,1.41,1.41,0,0,1-.8.37c.09-.19.12-.1.08-.3-.11,0,0,.32-.2.36-.07-.1-.23-.2-.25-.41h.21c-.1-.27-.27,0-.38-.05v-.12c-.33,0-.33.3-.68.31l0,.08c-.18.31-.16-.15-.35.08l-.06-.3a3.28,3.28,0,0,1-.65.38c.11-.22.37-.35.53-.49-.13,0-.43,0-.49.2,0,0,.11-.11.16-.07a.68.68,0,0,1-.58.38c0-.59-.66-.08-.9-.48-.41.28-.9.06-1.42.18.28.4-.15,0,0,.48-.11.06-.16.07-.18,0L90.18,60c-.12-.1.08-.12,0-.22-.27,0-.16-.16-.36-.23.08.15,0,.25-.19.23l.26.15c-.3.32-.42-.29-.72,0l.08-.17c-.17.13-.68.21-.75.61,0,0-.13-.14-.06-.2-.45.09-.84.67-1.24.58v-.12c-.06.06-.07.25-.2.18s0-.12,0-.11-.15.26-.28.23l0-.15c-.46,0-.53.51-.85.71-.11-.31-.47-.29-.65-.28v-.05c-.49.14-.71.56-1.11.85-.39-.24-1,.2-1.47.17.08,0,.08.25,0,.31s-.2.32-.29,0h0c-.18-.25-.37-.1-.53,0l.11.38c-.63-.39-1.06.61-1.46.19-.08.13-.2.17-.28.3l-.06-.21a2.4,2.4,0,0,0-.79.23l0-.16c-.21.05-.07.66-.26.72l-.15-.28c-.35.1-.77-.06-1,.31,0,0,0-.13,0-.16-.17,0-.69-.05-.53.36-.07-.27-.37.06-.53.22l0-.21c-.1.3-.09.37-.3.49-.06,0-.09-.15,0-.11-.2-.07-.1.22-.34.16l.05-.15c-.19,0-.16.1-.23.27s-.37,0-.42-.19c0,.12-.09.29-.21.25a.14.14,0,0,1,0-.14c-.33-.1-.43.31-.67.14a.28.28,0,0,0-.05-.12,1.48,1.48,0,0,1,.42,0c0-.19-.22-.2-.1-.49-.14.17-.37.53-.57.46a.09.09,0,0,1,0-.06l0,0s-.08,0-.12,0a.49.49,0,0,0-.16,0c0-.15-.23-.07-.33-.07,0,.21-.11.18,0,.35,0,0,0,0,.09,0s0,0,0,0v0l.25,0c-.07.11-.15.2-.27.09a3.38,3.38,0,0,1-.12.35c-.15-.29-.42-.43-.46-.61-.3.15-.7.09-.9.46-.09,0-.1-.12-.12-.18s.1,0,.13-.08c-.17.09-.5,0-.57.28-.2-.14.15-.25-.15-.22l0-.08c-.26-.23-.51-.09-.77,0s-.56.19-.81-.15c0,0,0,.07,0,.11a5,5,0,0,0-1.07-.36c-.36-.12-.76-.18-1-.57-.14-.17-.24,0-.42,0l.08-.22-.32.12c-.37,0-.18-.71-.67-.66l-.05.15c-.1-.11-.4-.21-.28-.34,0,0-.13.1-.12,0l.07-.09-.4-.07c-.15-.24.34-.33.06-.59-.13-.06-.55,0-.56.08a.18.18,0,0,1,0,.24l-.14-.05c-.26.24-.61.42-.5.83h.34l0,.18-.17-.13c0,.2.14.14.27.13a.24.24,0,0,0,0,.21l.4-.1c-.06.13-.26.14-.18.3.19,0,.11-.3.32-.26,0,.2-.11.28.08.26a.16.16,0,0,1-.16.11c.16,0,.28.18.44.07,0,.25.37.21.18.47a.65.65,0,0,1,.44-.05c-.4.22.36.24.1.57.31-.22.58.16.91.12,0,0-.08.06-.09,0s.12.22.19.32c.14-.26.4-.24.59-.36.07.33-.24.28-.3.55.09-.22.41-.1.42-.31.08.22.09.13.08.39.15-.34.15,0,.34-.18.14.24-.06.34.2.32C69.45,66.09,69.21,66.14,69.21,66.14ZM74.75,66h0l-.1,0Zm.45-.07L75,66c0-.07,0-.15,0-.15S75.12,65.89,75.2,65.94Zm-1.06-1.36c.07,0,.09,0,.1,0l-.11,0v0A.28.28,0,0,1,74.14,64.58Z"/><path class="cls-2" d="M74.05,64.86l0,0,0,0,0-.07Z"/><path class="cls-2" d="M112.24,63.85h0a0,0,0,0,1,0,0Z"/><polygon class="cls-2" points="81.24 64.83 81.23 64.78 81.2 64.84 81.24 64.83"/><path class="cls-2" d="M114.43,65.07a.11.11,0,0,0,0,.05A.17.17,0,0,0,114.43,65.07Z"/><path class="cls-2" d="M115.46,65.28l.14.09A.51.51,0,0,0,115.46,65.28Z"/><path class="cls-2" d="M116.25,65.48a.32.32,0,0,0,0-.09h0Z"/><path class="cls-2" d="M103.86,62.52h0C103.75,62.54,103.8,62.54,103.86,62.52Z"/><path class="cls-2" d="M107.59,63.17l-.14.06C107.51,63.27,107.55,63.29,107.59,63.17Z"/><polygon class="cls-2" points="99.81 61.73 99.81 61.73 99.79 61.72 99.81 61.73"/><path class="cls-2" d="M107.28,63.18a.16.16,0,0,0,.17,0S107.34,63.16,107.28,63.18Z"/><path class="cls-2" d="M119.79,65.68h0s0,0,0,0Z"/><path class="cls-2" d="M119.83,65.66l0,0S119.83,65.63,119.83,65.66Z"/><path class="cls-2" d="M120,65.57l-.09.06A.08.08,0,0,0,120,65.57Z"/><path class="cls-2" d="M118.7,65.63v.08S118.7,65.67,118.7,65.63Z"/><path class="cls-2" d="M118.37,65.64c.08,0,.2.17.31.13v-.06C118.63,65.82,118.45,65.51,118.37,65.64Z"/><path class="cls-2" d="M117.07,64.64l.26.07c0-.08-.09-.19,0-.21C117.05,64.25,117.42,64.69,117.07,64.64Z"/><path class="cls-2" d="M116.27,64.43c.15,0,0-.11,0-.16S116.18,64.35,116.27,64.43Z"/><path class="cls-2" d="M110.48,63.21l.07-.18C110.44,63,110.53,63.1,110.48,63.21Z"/><polygon class="cls-2" points="109.1 63.84 109.17 63.99 109.27 63.83 109.1 63.84"/><polygon class="cls-2" points="108.85 62.33 108.91 62.32 108.71 62.34 108.85 62.33"/><path class="cls-2" d="M99,59.7v.23C99.09,59.91,99.16,59.65,99,59.7Z"/><path class="cls-2" d="M94.54,59.56c-.05-.11-.18-.18-.25-.06C94.39,59.51,94.49,59.6,94.54,59.56Z"/><polygon class="cls-2" points="81.71 62.66 81.77 62.56 81.63 62.68 81.71 62.66"/><path class="cls-2" d="M118,71.57c0-.06,0-.21-.06-.19l-.07.25Z"/><path class="cls-2" d="M117.5,71.07a.66.66,0,0,0-.17.55c.11-.23.12-.13.24-.4.08,0,.13.08.12.17,0-.06.12.07.17-.08s-.23-.22-.37-.07A.25.25,0,0,1,117.5,71.07Z"/><path class="cls-2" d="M110,69.28l0,0A.08.08,0,0,0,110,69.28Z"/><path class="cls-2" d="M105.44,67.76s.06,0,.06,0S105.44,67.74,105.44,67.76Z"/><path class="cls-2" d="M104.73,67.26l0,0S104.74,67.24,104.73,67.26Z"/><path class="cls-2" d="M110,69.28l-.1-.11C109.86,69.25,109.94,69.25,110,69.28Z"/><path class="cls-2" d="M116.37,71.59a.16.16,0,0,0,.08-.06l-.07,0Z"/><path class="cls-2" d="M112.07,69.62h0a.35.35,0,0,0,.06-.09Z"/><path class="cls-2" d="M113.65,69.93s-.09.19-.12.28a.21.21,0,0,1,.1-.13A.54.54,0,0,0,113.65,69.93Z"/><path class="cls-2" d="M116.1,70.71l.05,0Z"/><path class="cls-2" d="M111,69.3s0-.06,0-.08Z"/><path class="cls-2" d="M66.39,70.51l0,0S66.38,70.5,66.39,70.51Z"/><polygon class="cls-2" points="65.54 68.46 65.57 68.47 65.65 68.39 65.54 68.46"/><path class="cls-2" d="M103.35,66.57h0C103.4,66.57,103.37,66.57,103.35,66.57Z"/><path class="cls-2" d="M89.25,66.06c.21.14-.18.31.1.44C89.31,66.43,89.48,66.12,89.25,66.06Z"/><path class="cls-2" d="M116.33,71.56h0Z"/><path class="cls-2" d="M89.35,66.5h0l0,0Z"/><path class="cls-2" d="M99.89,65.86a.28.28,0,0,0,0,.09S99.9,65.9,99.89,65.86Z"/><path class="cls-2" d="M102.37,66.74l-.05,0S102.36,66.74,102.37,66.74Z"/><path class="cls-2" d="M98.49,65.9s0-.05-.1,0a0,0,0,0,1,0,0S98.45,65.86,98.49,65.9Z"/><polygon class="cls-2" points="97.07 65.71 97.1 65.75 97.14 65.75 97.07 65.71"/><path class="cls-2" d="M70.67,72.18a.69.69,0,0,1,0-.2C70.63,72.13,70.41,72.13,70.67,72.18Z"/><path class="cls-2" d="M116.39,71.48s0,.07-.06.08h0A.28.28,0,0,0,116.39,71.48Z"/><path class="cls-2" d="M98.17,67.54l-.2-.06A.59.59,0,0,0,98.17,67.54Z"/><path class="cls-2" d="M80.91,70.83l0,0A.08.08,0,0,0,80.91,70.83Z"/><path class="cls-2" d="M97.34,67.42a.34.34,0,0,0-.11-.16.11.11,0,0,0,0,0Z"/><path class="cls-2" d="M70.64,72Z"/><path class="cls-2" d="M69,72.05c.21.09.18-.22.28-.35.28,0,0,.24.1.41.19,0,.39-.25.51-.21s0,.07,0,.12c.23-.18.53.11.79-.12a.22.22,0,0,1,0,.08,1.34,1.34,0,0,1,0-.38c.1,0,.21-.14.21.05,0,0-.07,0-.11.1l.12,0c0,.27-.16,0-.19.24.21,0,.47-.19.62-.12,0,.26-.38.05-.2.3L70.9,72c.12.43-.14-.06,0,.4.31.14.38-.09.69,0,.09-.14,0-.21.09-.35.47-.21.3.67.67.36.09-.16.14-.48.37-.29l-.09.28c.31,0,.18-.41.5-.22-.06.11-.24.1-.2.13.21.23.15-.16.31-.17l0,.26c.33,0,.68-.25,1-.3,0,.07-.07.15,0,.23a2.49,2.49,0,0,1,1.43,0l.13-.24s.09.09.06.13c.18.07,0-.13,0-.23s.14.1.1.18c.26-.25.75-.57,1.1-.4l0,.08c.26,0,.17-.5.43-.34l0,0c.53,0,1-.38,1.51-.16,0-.32.54,0,.45-.45.34.12.28.22.73.24.11,0,.08-.32.19-.4l.08.22.1-.29.18.23.11-.09a.18.18,0,0,1-.15-.13c.16-.16.51,0,.56.1l.39-.34c0,.09,0,.15-.09.22.16-.3.12.22.27-.06,0,0,0-.14,0-.19a.58.58,0,0,0,.58-.11l0,.16a7.71,7.71,0,0,0,1-.46c-.16,0-.22-.29-.12-.35l.12.21c0-.17-.14,0-.06-.27.15,0,.19.22.14.33l.14-.14c0,.06,0,.11,0,.2,0-.16.37.13.38-.16l0,.07c.37-.14.5-.28.8-.4-.07-.2.06-.2.09-.4a2.06,2.06,0,0,0,.81-.07c.14-.16,0-.18,0-.33.08.17.34.06.25.24a2.41,2.41,0,0,0,.74-.48c-.07-.05-.14-.07-.13-.14s.19,0,.21.11v0c.36-.44,1.22.18,1.45-.33l0,0,.31-.32c.18,0-.06.16.1.24.31-.42.65-.14.92-.44.4.45.9-.26,1.32,0l0-.13c.07-.15.13.05.2.07s-.12-.1-.08-.18c.72-.36,1.6,0,2.37,0,.29,0,.13-.7.51-.39l-.09.25c.57-.29,1.18,0,1.76-.24,0,0,0,.13-.1.12.12.19.45,0,.46-.1.09,0,0,.13.06.21s.33-.21.38,0c0,0,0,.06-.07.07s.37,0,.31-.16c.21.11.43-.06.58.09.15-.22.36.16.44-.16-.06.33.34.32.5.19-.06.09.1.12,0,.25.15,0,.3,0,.3-.2.22.44.64-.21.71.33a6.74,6.74,0,0,1,1.38-.11c-.09.32-.47-.07-.53.29.42-.07.72-.28,1.09-.1.09.07-.09.12-.14.17.43,0,.75.22,1.15.13,0,0-.06,0-.1.07s.15.09.18-.06l-.08,0c0-.24.4-.37.44-.48-.23.39.32.2,0,.69a.24.24,0,0,0,.15-.17c.06,0,.06.11,0,.2.27,0,.23-.19.45-.12,0,.07-.07.08-.12.16.15-.11.31-.21.48-.1,0,0,0,.1-.08.08.33.07.67-.21,1,0-.2.27.09.14,0,.41l.21,0,0-.16c.16.06.37-.09.49,0l-.16.07.33,0-.15-.16c.21-.08.09-.34.29-.2-.06,0,.16,0,.2.24h0c.11-.06.23-.12.33,0s-.12.29-.12.35c.16-.2.42.06.59-.14a.42.42,0,0,0-.09.21l.12-.16a.18.18,0,0,1,0,.23c.22.1,0-.37.26-.13,0,0,0,0-.08.05.26.16.58,0,.81.22,0,.29-.25,0-.23.25.38.06.87-.09,1.21.08l-.06,0c.16-.36.21.27.44.15,0,0-.12.19-.09.15.22.14.53.06.94,0l-.08.09c.13.13.37.16.52.25.07-.09.16,0,.15-.21.33.71,1-.05,1.32.53,0,0-.15.06-.11.07h.4c0-.18,0-.12-.07-.27a.3.3,0,0,1,.29-.11c-.2.07-.07.27,0,.38,0-.06,0-.11,0-.16.12.35.11-.33.33-.06l0,.08c.11,0,.23-.11.33-.07,0,.21-.13.07-.17.23.15,0,.38-.31.47-.08-.07,0-.17,0-.24.06.1.26.13.21.23.26h0l.24.15,0-.07c.29-.48.4,0,.72-.3-.3.27-.07.17-.13.39s.14.17.1.22c.15-.15.18.19.4,0,0,.07.13,0,.07.2.17,0,0-.13,0-.22.29-.21.54.39.94.1.33-.1.41-.34.71-.42.08.13-.11.26-.11.26a.32.32,0,0,0,.41,0c0,.06,0,.12,0,.2s.1-.26.25-.14a1.08,1.08,0,0,1-.15.28c.15,0,.3-.18.45-.23,0,.12-.11.18-.16.26.16,0,.43-.08.49-.28l-.1-.08c.06,0,0,.17,0,.21s-.19-.09-.19-.16l.1,0c-.07-.43-.41,0-.62,0l.12-.3-.23.24c0-.08,0-.26,0-.3-.13-.16-.14.1-.24-.09a0,0,0,0,1,0-.05l-.15.07c0-.06,0-.22.08-.16-.23-.22-.43.17-.5-.08h0c-.37,0-.07.22-.37.45l-.09-.59-.07.23s-.1,0-.08-.13c-.15.13,0,.1-.09.23-.14-.23-.5,0-.47-.34-.09.16.14.17-.07.25,0-.4-.22,0-.35-.19.09-.19.22,0,.1-.26-.16.32-.29-.13-.44-.1-.06.27-.31.06-.55.1,0-.09-.38-.22-.56-.38v0c-.1.26-.3.16-.46.17,0-.16.08-.21.18-.26l-.14,0a.24.24,0,0,1-.21.12l.08-.19c-.19,0-.44.14-.65,0-.06.18.06.56-.23.62,0-.1.05-.28.13-.3s-.1.06-.14,0l.15-.14c-.09-.11-.1.12-.18.09s0-.12,0-.23.06.08.11,0a.41.41,0,0,1-.2-.29c0,.08,0,.19-.13.19s0-.19-.11-.29c-.07.08-.17-.06-.23.16,0,0,0-.12,0-.19s-.47-.1-.42.16l0,0h0c-.38.11-.64-.31-1-.32l0-.07c-.22,0-.44-.08-.62,0s-.1-.17,0-.25c-.16,0-.2.09-.38-.09.19-.08,0-.13.18,0-.17-.12-.18-.24-.44-.11.12-.16-.07-.27-.18-.25l.09.17a.48.48,0,0,1-.27-.09l.12-.22c-.3-.41-.86.28-1-.3-.15.13.17.18,0,.35-.17-.09-.25-.49-.3-.51-.21-.21-.34.28-.57.11a.31.31,0,0,1-.25.35c-.17-.08-.11-.42,0-.45a0,0,0,0,1,0,.06c.07,0,.16,0,.12-.14l-.05.08c-.07-.11-.32-.18-.22-.3-.16,0-.1.12,0,.2-.19-.2-.36-.12-.57-.27,0,.06,0,.17,0,.15-.32-.21-.2.12-.45.08-.09-.17.14-.29-.13-.25-.12-.13,0-.24.12-.29-.27.1-.38-.23-.5-.29l.14,0a.44.44,0,0,1-.2,0l0,.19c-.06,0-.12-.07-.1-.14-.1.09,0,.3-.21.42-.06-.12-.3,0-.26-.23.26.16,0-.23.28-.2a.2.2,0,0,1-.17-.05.06.06,0,0,1,0-.06c-.22-.28-.2.23-.48.14.07-.12,0-.26-.05-.25.11,0,0,.23-.14.3-.15-.15-.21,0-.31,0l.1.08c-.07.12-.16.08-.3.09,0-.11.14,0,.1-.1-.2.19-.25-.31-.49-.21-.07-.11,0-.24,0-.32-.27.11-.2-.24-.47-.16,0,.19,0,.15-.16.28l.42,0-.31.19c.11,0,.27,0,.33,0-.15.11-.13.07-.11.23-.09-.3-.35.08-.48-.14l.1-.43c-.23-.27-.54.1-.87-.08l.1.1c-.09.16-.23,0-.36,0,0-.14,0-.21-.06-.31,0,.11-.26-.06-.35.22L99.43,66c-.28-.14-.41.34-.68.25.11-.15,0-.27.21-.35-.1,0-.18-.06-.2,0,0-.1-.29.16-.36,0-.05.06-.08.21-.19.18a.35.35,0,0,1,0-.07c0,.07-.18.08-.11.25-.22-.5-.81-.08-1-.51a3.11,3.11,0,0,1-.66.06s0-.07,0,0c-.25-.16-.19.41-.48.24-.13-.25.17-.12.08-.22,0-.49-.36,0-.55-.25l0,0c-.15-.18-.38.16-.63.14a.2.2,0,0,0,0-.08,1.29,1.29,0,0,1-.73.41c.07-.19.1-.1.06-.29-.11,0,0,.31-.18.37-.07-.11-.23-.2-.26-.4l.21,0c-.12-.26-.27,0-.38,0v-.12c-.31,0-.3.35-.63.36l0,.09c-.16.31-.17-.15-.33.09l-.08-.29a3.46,3.46,0,0,1-.6.41c.09-.23.33-.37.48-.52-.12,0-.41.07-.45.22,0,0,.09-.11.15-.07a.65.65,0,0,1-.53.4c0-.59-.63,0-.89-.43-.37.3-.86.08-1.34.24.29.38-.13,0,0,.48-.1.06-.15.07-.16,0L89,66.34c-.12-.11.08-.13,0-.23-.26,0-.16-.15-.36-.22.08.15,0,.25-.17.23l.26.14c-.27.34-.41-.28-.68.06l.06-.17c-.14.13-.63.21-.68.61,0,0-.13-.14-.06-.2-.43.08-.78.68-1.17.58V67c-.06.06-.05.25-.19.18s0-.12,0-.11-.13.25-.25.23l0-.15c-.44,0-.5.51-.8.7-.11-.31-.45-.3-.62-.29v0c-.47.13-.68.55-1,.82-.38-.24-.92.19-1.41.15.09,0,.08.24,0,.3s-.19.31-.28,0h0c-.18-.25-.35-.11-.51-.06l.11.38c-.6-.39-1,.58-1.39.15-.07.13-.2.17-.26.29l-.06-.2a1.91,1.91,0,0,0-.76.2l0-.16c-.2,0-.07.65-.25.71l-.14-.29c-.33.1-.74-.08-1,.28,0,0,0-.13,0-.16-.16,0-.65-.07-.5.34-.07-.27-.35,0-.51.21v-.22c-.11.3-.1.37-.3.49s-.08-.16,0-.12c-.19-.07-.1.22-.33.16l.06-.15c-.18,0-.15.08-.23.25s-.35,0-.4-.19c0,.11-.08.28-.19.24a.17.17,0,0,1,0-.15c-.31-.1-.41.3-.64.12a.4.4,0,0,0,0-.12l.4,0c0-.19-.21-.2-.09-.48-.13.16-.36.52-.55.43a.16.16,0,0,1,0-.06l0,0s-.08,0-.12,0a.3.3,0,0,0-.15,0c0-.16-.22-.08-.31-.09,0,.21-.11.18,0,.35,0,0,0,0,.08,0s0,0,0,0v0l.23,0c-.07.11-.14.2-.25.09,0,.14-.1.28-.13.34-.14-.29-.39-.44-.42-.62-.29.14-.66.07-.87.44-.09,0-.09-.12-.11-.18s.1,0,.13-.08c-.17.08-.48,0-.55.26-.19-.14.15-.24-.14-.22l0-.08c-.25-.23-.48-.1-.74,0s-.54.19-.77-.16c0,.05,0,.07,0,.11a4.43,4.43,0,0,0-1-.37c-.34-.11-.72-.18-.91-.56-.12-.17-.23,0-.4,0l.08-.22-.31.12c-.36,0-.15-.7-.63-.65l-.06.16c-.08-.11-.38-.21-.25-.33,0,0-.13.1-.13,0l.08-.09-.39-.06c-.14-.23.34-.33.08-.58-.13,0-.54,0-.55.09a.17.17,0,0,1,0,.23l-.14,0c-.26.24-.6.42-.51.82h.33l0,.18-.16-.13c0,.19.13.14.25.12a.27.27,0,0,0,0,.2l.4-.1c-.07.13-.26.14-.19.3.19,0,.12-.3.32-.26,0,.19-.12.27.07.25a.16.16,0,0,1-.16.11c.16,0,.27.17.43.06,0,.24.35.2.15.46a.78.78,0,0,1,.43-.06c-.39.23.35.24.08.57.31-.22.55.15.88.11,0,0-.08.06-.09,0s.1.22.17.31c.14-.25.39-.23.58-.35.05.33-.25.28-.3.55.09-.22.39-.1.41-.31.06.22.08.13.06.38.15-.33.14,0,.33-.18.13.25-.06.35.18.32C69.21,72,69,72.05,69,72.05Zm5.29,0Zm.42-.06-.18,0c0-.07,0-.15,0-.15S74.62,71.93,74.69,72Zm-1-1.39c.06,0,.08,0,.1,0l-.11,0v0S73.71,70.62,73.72,70.59Z"/><path class="cls-2" d="M73.62,70.87h0l0,.05,0-.07Z"/><path class="cls-2" d="M110,69.33h0s0,0,0,0Z"/><polygon class="cls-2" points="80.49 71.07 80.48 71.02 80.46 71.07 80.49 71.07"/><path class="cls-2" d="M112.06,70.61a.14.14,0,0,0,0,.06A.21.21,0,0,0,112.06,70.61Z"/><path class="cls-2" d="M113,70.87l.13.11Z"/><path class="cls-2" d="M113.75,71.13l0-.09h0Z"/><path class="cls-2" d="M102.06,68.12h0C102,68.14,102,68.14,102.06,68.12Z"/><path class="cls-2" d="M105.61,68.65a.59.59,0,0,1-.14.06C105.53,68.75,105.58,68.76,105.61,68.65Z"/><polygon class="cls-2" points="98.19 67.54 98.2 67.54 98.17 67.54 98.19 67.54"/><path class="cls-2" d="M105.32,68.66a.13.13,0,0,0,.15,0A.17.17,0,0,0,105.32,68.66Z"/><path class="cls-2" d="M117.06,71.66h0a0,0,0,0,1,0,0Z"/><path class="cls-2" d="M117.11,71.64l0,0S117.12,71.62,117.11,71.64Z"/><path class="cls-2" d="M117.24,71.57l-.09.05S117.22,71.63,117.24,71.57Z"/><path class="cls-2" d="M116.05,71.48l0,.08A.45.45,0,0,0,116.05,71.48Z"/><path class="cls-2" d="M115.74,71.46c.07,0,.16.19.27.16l0-.06C116,71.67,115.82,71.35,115.74,71.46Z"/><path class="cls-2" d="M114.61,70.35l.24.1c0-.09-.07-.21.05-.21C114.62,70,114.93,70.43,114.61,70.35Z"/><path class="cls-2" d="M113.86,70.09c.14,0,0-.12,0-.16S113.78,70,113.86,70.09Z"/><path class="cls-2" d="M108.38,68.67l.07-.18C108.34,68.48,108.42,68.56,108.38,68.67Z"/><polygon class="cls-2" points="107.04 69.3 107.11 69.44 107.2 69.29 107.04 69.3"/><polygon class="cls-2" points="106.83 67.8 106.88 67.78 106.69 67.8 106.83 67.8"/><path class="cls-2" d="M97.35,65.55v.24C97.43,65.76,97.48,65.5,97.35,65.55Z"/><path class="cls-2" d="M93.07,65.71c0-.12-.18-.18-.24,0C92.93,65.66,93,65.74,93.07,65.71Z"/><polygon class="cls-2" points="80.94 68.92 80.99 68.82 80.86 68.93 80.94 68.92"/><path class="cls-2" d="M122.47,59.22c0-.07,0-.21-.1-.17l0,.25Z"/><path class="cls-2" d="M121.81,58.85a.61.61,0,0,0-.06.57c.06-.25.1-.16.17-.45.08,0,.16.06.16.15,0-.07.14,0,.16-.12-.14-.18-.28-.17-.41,0C121.79,59,121.81,58.89,121.81,58.85Z"/><path class="cls-2" d="M113.56,58.06l0,0A.1.1,0,0,0,113.56,58.06Z"/><path class="cls-2" d="M108.62,56.58a.07.07,0,0,0,.07,0S108.62,56.55,108.62,56.58Z"/><path class="cls-2" d="M107.86,56.05l0,0S107.88,56,107.86,56.05Z"/><path class="cls-2" d="M113.56,58.06l-.12-.1C113.42,58,113.5,58,113.56,58.06Z"/><path class="cls-2" d="M120.72,59.6a.27.27,0,0,0,.07-.08l-.07,0Z"/><path class="cls-2" d="M115.82,58.27h0l0-.09Z"/><path class="cls-2" d="M117.52,58.4s-.06.2-.08.29a.28.28,0,0,1,.09-.14A.4.4,0,0,0,117.52,58.4Z"/><path class="cls-2" d="M120.26,58.79l0,0Z"/><path class="cls-2" d="M114.6,58a.11.11,0,0,0,0-.08Z"/><path class="cls-2" d="M66.53,58.6l0,0S66.51,58.6,66.53,58.6Z"/><polygon class="cls-2" points="65.54 56.46 65.57 56.47 65.66 56.39 65.54 56.46"/><path class="cls-2" d="M106.39,55.3h0S106.42,55.3,106.39,55.3Z"/><path class="cls-2" d="M91.3,53.56c.2.14-.23.3.07.44C91.33,53.93,91.53,53.63,91.3,53.56Z"/><path class="cls-2" d="M120.67,59.58h0Z"/><path class="cls-2" d="M91.37,54h0l0,0Z"/><path class="cls-2" d="M102.73,54.35a.3.3,0,0,0,0,.1A.24.24,0,0,0,102.73,54.35Z"/><path class="cls-2" d="M105.35,55.42l-.06-.05A.13.13,0,0,0,105.35,55.42Z"/><path class="cls-2" d="M101.24,54.27s0-.06-.1,0a0,0,0,0,0,0,0S101.2,54.23,101.24,54.27Z"/><polygon class="cls-2" points="99.74 53.95 99.76 53.99 99.81 53.99 99.74 53.95"/><path class="cls-2" d="M71.19,60.29a.84.84,0,0,1,0-.2C71.14,60.24,70.9,60.25,71.19,60.29Z"/><path class="cls-2" d="M120.71,59.48a.11.11,0,0,1,0,.1l0,0A.19.19,0,0,0,120.71,59.48Z"/><path class="cls-2" d="M100.79,55.87l-.22-.07A.71.71,0,0,0,100.79,55.87Z"/><path class="cls-2" d="M82.15,58.42l-.05,0S82.14,58.45,82.15,58.42Z"/><path class="cls-2" d="M99.89,55.68a.45.45,0,0,0-.09-.17.1.1,0,0,0,0,.05Z"/><path class="cls-2" d="M71.14,60.08h0Z"/><path class="cls-2" d="M69.36,60.19c.24.09.19-.22.28-.35.3,0,.08.23.14.4.2,0,.4-.26.53-.22s0,.07,0,.12c.24-.18.57.1.83-.13a.11.11,0,0,1,0,.07,1.13,1.13,0,0,1,0-.38c.1,0,.21-.13.23,0-.07,0-.08.06-.12.11l.12-.06c.07.28-.16.06-.19.25.23,0,.51-.23.66-.15,0,.26-.4.06-.2.3-.08,0-.16-.07-.24-.12.14.44-.16-.06,0,.4.34.11.41-.1.75,0,.09-.14,0-.21.07-.35.5-.23.36.66.74.34.1-.17.13-.47.38-.32l-.08.3c.33,0,.18-.43.53-.26-.06.12-.26.11-.21.15.24.21.16-.18.33-.19l0,.25c.35-.06.72-.26,1.1-.35,0,.08-.07.17,0,.23a2.93,2.93,0,0,1,1.53-.06l.14-.25a.1.1,0,0,1,.06.13c.19,0,0-.13,0-.24S77,60,77,60c.28-.25.8-.6,1.18-.45l-.05.08c.28,0,.18-.5.46-.37l0,.05c.57-.07,1.1-.44,1.62-.24,0-.32.57-.05.46-.48.38.11.31.21.79.21.12,0,.08-.32.21-.41l.08.21.11-.29.19.23.11-.11a.18.18,0,0,1-.16-.12.47.47,0,0,1,.6.08l.42-.36c0,.09,0,.15-.1.23.18-.32.13.21.3-.08,0,0,0-.13,0-.18a.66.66,0,0,0,.61-.14v.17c.37-.1.73-.35,1.12-.5-.16,0-.23-.29-.12-.36l.13.22c0-.17-.15-.05-.06-.28.16,0,.19.23.14.33l.15-.14c0,.06,0,.11,0,.2,0-.17.4.12.41-.17l0,.06c.4-.14.55-.28.87-.41-.07-.2.07-.21.11-.4a3.21,3.21,0,0,0,.86-.08c.17-.17,0-.19,0-.34.08.18.36.06.25.24a2.52,2.52,0,0,0,.81-.48c-.07-.06-.13-.07-.13-.14s.21,0,.23.1l0,0c.41-.43,1.29.2,1.56-.3l0,0,.35-.3c.2,0-.07.16.09.25.36-.42.7-.12,1-.41.38.49,1-.18,1.41.12l0-.13c.09-.14.13.06.2.08s-.11-.1-.06-.19a2.48,2.48,0,0,1,1.27,0l1.29.25c.3.06.2-.68.58-.33l-.12.24c.65-.25,1.28.08,1.93-.06,0,0,0,.13-.11.12.1.2.48.08.5-.07.1,0,0,.14,0,.22s.37-.18.41,0c0,0-.05,0-.08.06s.4.08.35-.13c.22.14.46,0,.63.16.16-.2.37.2.48-.12-.09.33.34.36.53.23-.08.09.1.13,0,.26.17,0,.33,0,.35-.17.21.48.7-.15.74.4a7.48,7.48,0,0,1,1.5,0c-.11.32-.5-.11-.58.24.46,0,.79-.22,1.18,0,.1.08-.1.13-.15.17.46,0,.8.27,1.23.21,0,0-.06.05-.1.07s.15.1.19,0l-.08,0c-.06-.25.43-.36.48-.46-.26.38.34.22,0,.69a.23.23,0,0,0,.16-.17c.06,0,.07.12,0,.21.29,0,.25-.18.49-.11,0,.08-.08.09-.14.16.17-.1.34-.2.52-.07,0,0,0,.1-.08.08.36.09.72-.18,1.06.07-.21.28.1.15,0,.42h.23l0-.16c.18.06.4-.08.53.05l-.17.07.36.06-.16-.16c.22-.08.08-.35.3-.2-.06,0,.18.06.23.25h0c.11-.06.23-.12.35,0s-.12.28-.11.35c.15-.2.44.06.63-.14a.36.36,0,0,0-.1.22l.13-.16c.07.08.07.11,0,.22.24.11,0-.37.27-.13,0,0,0,0-.08.05.28.17.62.07.88.23,0,.29-.27,0-.24.25.43.06.94-.1,1.31.07l-.06,0c.15-.37.24.27.49.14-.06,0-.12.2-.1.16.26.14.59,0,1,0l-.08.09c.14.13.42.14.58.23.07-.09.17,0,.14-.21.43.7,1.08-.12,1.48.43-.06,0-.15.07-.1.08l.42,0c0-.18,0-.12-.1-.26a.3.3,0,0,1,.29-.14c-.2.08,0,.27,0,.38,0,0,0-.11,0-.16.18.34.08-.34.35-.09l0,.08c.11,0,.23-.13.34-.1,0,.2-.12.09-.15.25.17,0,.37-.36.5-.15-.08.05-.18.05-.26.1.15.24.17.19.29.23h0l.28.12-.07-.07c.25-.5.44-.06.74-.39-.29.31-.06.19-.09.41s.18.15.15.21c.14-.17.22.16.42-.09,0,.07.14,0,.11.18.18-.06,0-.12,0-.21.27-.26.64.28,1-.07.33-.15.38-.4.67-.53.11.11-.07.27-.07.27a.37.37,0,0,0,.46,0c0,.07,0,.12.06.19s.06-.27.24-.19a.94.94,0,0,1-.1.31c.15-.09.28-.24.43-.33,0,.12-.07.21-.12.3.17-.08.44-.18.47-.39l-.12-.05c.06,0,0,.16,0,.21s-.22,0-.24-.11l.1-.07c-.16-.41-.43.13-.65.14l.06-.33-.2.29c-.06-.07-.1-.24,0-.3-.17-.13-.13.13-.28,0s0,0,0-.05l-.15.09c0-.06,0-.22.06-.17-.29-.18-.43.24-.55,0l0,0c-.38.11,0,.23-.31.5l-.2-.56,0,.23a.09.09,0,0,1-.1-.11c-.15.16,0,.1-.06.25-.19-.21-.52.12-.56-.26-.07.17.18.15,0,.26,0-.4-.23.05-.4-.14.06-.2.22-.08.06-.28-.12.34-.33-.09-.48,0,0,.27-.32.09-.57.17,0-.1-.44-.17-.65-.31v0c-.07.27-.3.18-.47.22,0-.17.06-.23.16-.29l-.15,0a.29.29,0,0,1-.22.14l.07-.2c-.2,0-.45.18-.7,0-.05.19.13.56-.18.64,0-.1,0-.28.1-.31s-.1.07-.14,0l.14-.15c-.11-.1-.08.13-.18.1s-.06-.11,0-.23.07.08.12,0a.43.43,0,0,1-.25-.26c0,.08,0,.19-.12.19s0-.19-.14-.29c-.07.09-.18,0-.23.18-.06,0,0-.12-.06-.19s-.51-.08-.44.18l0,0h0c-.4.13-.71-.27-1.08-.27l0-.08c-.23,0-.47-.07-.66.05a.2.2,0,0,1-.06-.25c-.18,0-.22.09-.41-.09.19-.09,0-.13.18,0-.18-.12-.2-.24-.47-.11.12-.16-.09-.27-.21-.24l.11.17a.59.59,0,0,1-.3-.09l.12-.22c-.33-.42-.9.27-1.07-.32-.16.14.19.19,0,.36-.18-.09-.28-.5-.34-.52-.22-.21-.35.28-.6.11,0,.09,0,.33-.26.34s-.12-.43,0-.46.06,0,0,.07.17,0,.12-.14l0,.08c-.07-.12-.34-.19-.23-.31-.17,0-.11.12,0,.2-.21-.2-.39-.13-.62-.29,0,.06,0,.17,0,.16-.33-.22-.21.11-.47.06-.11-.17.14-.29-.14-.26-.13-.14,0-.23.12-.28-.28.09-.4-.25-.53-.32l.15,0a.35.35,0,0,1-.21,0l0,.19c-.06,0-.12-.07-.1-.14-.11.08,0,.3-.23.4-.07-.11-.32,0-.28-.23.28.17,0-.24.3-.2-.06,0-.11,0-.18-.06s0,0,0-.05c-.23-.29-.21.22-.51.12.08-.12,0-.27,0-.26.12.05,0,.24-.15.3-.16-.16-.23,0-.33,0l.1.09c-.08.11-.17.06-.31.06,0-.1.14,0,.1-.09-.21.18-.26-.33-.52-.24-.07-.12.07-.24,0-.33-.29.1-.2-.25-.49-.19,0,.2,0,.16-.18.27h.44l-.33.18c.12,0,.29,0,.35,0-.16.1-.14.06-.12.22-.09-.31-.38.05-.52-.18l.13-.42c-.24-.28-.58,0-.93-.15l.1.11c-.1.15-.24,0-.38,0,0-.14,0-.21,0-.31,0,.11-.28-.09-.39.19l-.12-.23c-.29-.16-.46.31-.74.18.12-.13,0-.27.24-.33-.1,0-.18-.07-.21,0,0-.11-.32.13-.38,0-.06.05-.11.2-.22.16a.2.2,0,0,1,0-.07c0,.07-.2.06-.14.24-.2-.51-.86-.15-1-.59-.23,0-.51,0-.71,0,0,0,0-.07,0,0-.26-.18-.24.39-.53.19-.13-.26.19-.1.1-.2,0-.49-.39,0-.57-.31l.06,0c-.14-.19-.42.12-.69,0a.11.11,0,0,0,0-.07,1.45,1.45,0,0,1-.83.34c.1-.18.13-.09.09-.29-.11,0,0,.32-.22.35-.07-.11-.23-.21-.24-.42h.22c-.09-.28-.28,0-.4-.07l0-.11c-.34,0-.35.3-.71.27l0,.09c-.2.3-.16-.16-.36.06L95,53.51a3.53,3.53,0,0,1-.68.36c.12-.23.4-.35.57-.48-.13,0-.45,0-.51.18,0,0,.11-.1.17-.06a.71.71,0,0,1-.61.36c0-.58-.68-.12-.91-.52-.44.27-.93,0-1.47.14.27.42-.15,0,0,.48-.12.05-.17.06-.18,0L91,53.82c-.12-.11.09-.12.06-.22-.28,0-.16-.17-.36-.24.07.15,0,.25-.21.22l.26.16c-.32.32-.41-.3-.74,0l.09-.16c-.18.12-.71.19-.8.6,0-.05-.12-.15,0-.21-.47.09-.89.66-1.29.57v-.11c-.07.06-.07.25-.21.17s0-.11,0-.11-.16.26-.29.24l0-.15c-.47,0-.56.51-.88.71-.11-.31-.48-.29-.67-.28v0c-.5.14-.74.56-1.15.85-.4-.23-1,.21-1.52.19.09,0,.08.25,0,.31s-.21.32-.3,0h0c-.18-.25-.37-.09-.54,0l.11.38c-.64-.38-1.09.63-1.5.22-.07.13-.21.17-.28.3l-.06-.2a2.11,2.11,0,0,0-.82.24l0-.17c-.21.06-.07.67-.26.74l-.15-.29c-.37.12-.81,0-1.08.34,0-.05,0-.14,0-.17-.17,0-.71,0-.54.38-.07-.27-.38.06-.55.23l0-.21c-.1.3-.09.37-.31.5-.06,0-.08-.15,0-.12-.2-.06-.1.23-.35.18l.06-.16c-.19,0-.16.1-.24.28s-.37,0-.43-.18c0,.12-.09.29-.21.25a.14.14,0,0,1,0-.14c-.34-.09-.44.32-.69.15a.19.19,0,0,0-.05-.12,2,2,0,0,1,.44,0c0-.19-.23-.19-.12-.48-.13.17-.37.53-.58.47a.16.16,0,0,1,0-.06v0a.12.12,0,0,0-.12,0,.37.37,0,0,0-.17,0c0-.16-.23-.07-.33-.07,0,.21-.12.18,0,.35,0,0,0,0,.09,0s0,0,0,0v0l.26,0c-.07.12-.15.21-.28.1,0,.14-.08.28-.11.35-.17-.28-.44-.43-.49-.6-.3.15-.72.11-.92.48-.09,0-.1-.12-.13-.18s.11,0,.14-.08c-.18.09-.52,0-.58.28-.22-.14.14-.25-.17-.22l0-.08c-.53-.44-1.07.55-1.64-.12,0,0,.06.07.06.11a6.86,6.86,0,0,0-1.11-.36c-.37-.12-.78-.17-1-.57-.15-.17-.25,0-.43,0l.07-.22-.32.12c-.38,0-.19-.71-.7-.67l-.05.15c-.09-.11-.41-.22-.28-.35,0,0-.13.1-.13,0l.07-.1-.4-.07c-.16-.24.34-.33,0-.6-.14-.05-.56,0-.57.08a.18.18,0,0,1,0,.24l-.15-.05c-.26.24-.61.41-.49.83h.34l0,.18-.17-.13c0,.2.14.15.27.13a.34.34,0,0,0,0,.21l.42-.09c-.07.12-.27.13-.18.3.19,0,.11-.31.32-.26,0,.2-.11.28.08.27a.15.15,0,0,1-.16.1c.16,0,.29.18.45.08,0,.25.38.21.19.47a.84.84,0,0,1,.45,0c-.4.23.37.25.11.59.32-.23.6.16.93.13,0,0-.07,0-.09,0s.13.21.2.32c.14-.26.41-.24.6-.36.08.33-.24.28-.29.55.08-.22.42-.1.42-.31.08.22.1.13.09.39.15-.34.15,0,.34-.18.15.25,0,.35.22.32C69.6,60.14,69.36,60.19,69.36,60.19ZM75.05,60h0l-.11,0Zm.45-.08-.19,0c0-.07,0-.15,0-.15S75.43,59.85,75.5,59.9Zm-1.1-1.33c.07,0,.09,0,.11,0l-.12,0v0A.28.28,0,0,1,74.4,58.57Z"/><path class="cls-2" d="M74.31,58.85l0,0,0,0,0-.07Z"/><path class="cls-2" d="M113.61,58.11h0s0,0,0,0Z"/><polygon class="cls-2" points="81.7 58.68 81.69 58.63 81.66 58.69 81.7 58.68"/><path class="cls-2" d="M115.92,59.25a.09.09,0,0,0,0,.06A.09.09,0,0,0,115.92,59.25Z"/><path class="cls-2" d="M117,59.41l.15.09A.65.65,0,0,0,117,59.41Z"/><path class="cls-2" d="M117.82,59.57a.29.29,0,0,0,0-.09h0Z"/><path class="cls-2" d="M105,56.79h0Z"/><path class="cls-2" d="M108.83,57.48a.94.94,0,0,1-.15.06C108.74,57.57,108.79,57.59,108.83,57.48Z"/><polygon class="cls-2" points="100.82 55.88 100.82 55.88 100.79 55.87 100.82 55.88"/><path class="cls-2" d="M108.51,57.48a.17.17,0,0,0,.17.06A.27.27,0,0,0,108.51,57.48Z"/><path class="cls-2" d="M121.47,59.52h0s0,0,0,0Z"/><path class="cls-2" d="M121.52,59.48l0,0S121.52,59.46,121.52,59.48Z"/><path class="cls-2" d="M121.64,59.39l-.08.06S121.63,59.45,121.64,59.39Z"/><path class="cls-2" d="M120.35,59.56v0Z"/><path class="cls-2" d="M120,59.59c.08,0,.21.16.32.11v-.06C120.3,59.75,120.08,59.46,120,59.59Z"/><path class="cls-2" d="M118.61,58.68l.27.06c0-.08-.11-.19,0-.21C118.56,58.29,119,58.71,118.61,58.68Z"/><path class="cls-2" d="M117.78,58.53c.15,0,0-.12,0-.17S117.68,58.45,117.78,58.53Z"/><path class="cls-2" d="M111.8,57.5l.06-.18C111.74,57.32,111.84,57.39,111.8,57.5Z"/><polygon class="cls-2" points="110.39 58.15 110.47 58.29 110.56 58.14 110.39 58.15"/><polygon class="cls-2" points="110.11 56.64 110.16 56.62 109.96 56.64 110.11 56.64"/><path class="cls-2" d="M100,53.82v.24C100.11,54,100.18,53.78,100,53.82Z"/><path class="cls-2" d="M95.45,53.52c0-.12-.18-.19-.26-.07C95.3,53.46,95.4,53.55,95.45,53.52Z"/><polygon class="cls-2" points="82.19 56.5 82.25 56.39 82.11 56.51 82.19 56.5"/><path class="cls-2" d="M112.23,76.63s.06-.2,0-.19l-.1.23Z"/><path class="cls-2" d="M111.88,76.07a.68.68,0,0,0-.26.51c.14-.21.13-.11.29-.36.07,0,.1.11.06.19s.1.08.17-.06-.15-.25-.31-.12A.28.28,0,0,1,111.88,76.07Z"/><path class="cls-2" d="M105.32,73.81l0,0Z"/><path class="cls-2" d="M101.16,72.61s.06,0,.06,0S101.16,72.58,101.16,72.61Z"/><path class="cls-2" d="M100.49,72.18l0,0S100.51,72.17,100.49,72.18Z"/><path class="cls-2" d="M105.32,73.81l-.09-.11C105.2,73.78,105.27,73.77,105.32,73.81Z"/><path class="cls-2" d="M110.8,76.4a.2.2,0,0,0,.08,0h-.07Z"/><path class="cls-2" d="M107.19,74.14h0l0-.09Z"/><path class="cls-2" d="M108.6,74.51s-.1.18-.14.26.08-.11.11-.11S108.59,74.57,108.6,74.51Z"/><path class="cls-2" d="M110.71,75.49h0Z"/><path class="cls-2" d="M106.21,73.8v-.07S106.2,73.78,106.21,73.8Z"/><path class="cls-2" d="M66.21,76.39l0,0S66.2,76.38,66.21,76.39Z"/><polygon class="cls-2" points="65.54 74.46 65.56 74.47 65.65 74.39 65.54 74.46"/><path class="cls-2" d="M99.19,71.67h0S99.21,71.66,99.19,71.67Z"/><path class="cls-2" d="M86.61,72.93c.19.13-.14.3.13.43C86.7,73.29,86.82,73,86.61,72.93Z"/><path class="cls-2" d="M110.77,76.37l-.06,0A.07.07,0,0,0,110.77,76.37Z"/><path class="cls-2" d="M86.74,73.36Z"/><path class="cls-2" d="M96,71.45a.3.3,0,0,0,0,.1A.24.24,0,0,0,96,71.45Z"/><path class="cls-2" d="M98.32,72l0,0S98.31,72,98.32,72Z"/><path class="cls-2" d="M94.76,71.72s-.05,0-.09,0,0,0,0,0S94.72,71.69,94.76,71.72Z"/><polygon class="cls-2" points="93.48 71.76 93.51 71.8 93.55 71.78 93.48 71.76"/><path class="cls-2" d="M70,78a1.27,1.27,0,0,1,0-.2C70,78,69.75,78,70,78Z"/><path class="cls-2" d="M110.83,76.29a.14.14,0,0,1-.06.08h0A.31.31,0,0,0,110.83,76.29Z"/><path class="cls-2" d="M94.71,73.39l-.19,0Z"/><path class="cls-2" d="M79.24,77.37l0,0S79.23,77.39,79.24,77.37Z"/><path class="cls-2" d="M94,73.39a.61.61,0,0,0-.11-.14.14.14,0,0,0,0,.06Z"/><path class="cls-2" d="M70,77.82Z"/><path class="cls-2" d="M68.46,77.85c.19.09.19-.21.29-.34.25,0,0,.23.06.4.17,0,.36-.22.47-.18s0,.07,0,.12c.22-.17.46.12.71-.1a.2.2,0,0,1,0,.07,1.63,1.63,0,0,1,.07-.37c.08,0,.2-.13.18,0,0,0-.07,0-.11.1l.11,0c0,.27-.14,0-.19.24.2,0,.45-.19.57-.08,0,.26-.34,0-.2.27l-.19-.15c.07.43-.13-.07-.08.39.28.15.35,0,.62.08.09-.13,0-.21.11-.34.43-.2.22.68.57.38.1-.15.16-.47.35-.27l-.1.27c.28.06.2-.38.47-.17-.06.12-.23.08-.19.12.17.25.15-.16.29-.15v.26c.3,0,.63-.21.95-.25,0,.07-.07.15,0,.23a2.45,2.45,0,0,1,1.28.12l.13-.23s.07.09,0,.14c.16.07,0-.14.06-.23s.13.11.08.18c.26-.19.7-.5,1-.3l0,.07c.23.05.17-.48.41-.31l0,0c.49,0,.95-.3,1.37,0,0-.32.49,0,.42-.4.31.15.26.24.66.28.1,0,.07-.3.18-.38l.06.22.1-.28.16.24.1-.08a.24.24,0,0,1-.14-.14c.15-.15.48,0,.52.14l.35-.31c0,.09,0,.14-.08.22.15-.3.11.22.25,0,0,0,0-.14,0-.19a.48.48,0,0,0,.52-.08l0,.16a5.77,5.77,0,0,0,1-.39c-.14,0-.2-.3-.11-.36l.11.22c0-.17-.13,0-.06-.27.14,0,.18.23.13.33l.13-.13c0,.06,0,.11,0,.2,0-.16.34.14.34-.14l0,.07c.33-.12.46-.25.72-.36-.06-.2.06-.2.08-.39a2,2,0,0,0,.73,0c.13-.16,0-.19,0-.33.08.17.31.07.24.24a2,2,0,0,0,.65-.45c-.07-.06-.12-.07-.12-.14s.17,0,.2.11v0c.3-.42,1.12.17,1.3-.32v0l.26-.32c.17,0,0,.17.11.24.25-.44.58-.17.81-.47.41.46.79-.33,1.21-.07l-.06-.12c0-.15.12,0,.19.05s-.12-.08-.1-.17A4.38,4.38,0,0,1,90.52,74c.25,0,0-.71.39-.46l0,.26c.46-.42,1.06-.14,1.53-.47,0,.06,0,.13-.07.14.13.16.4,0,.39-.19.08,0,0,.13.08.2s.26-.24.33-.07,0,.06-.05.08.33,0,.25-.2c.2.08.37-.12.53,0,.09-.23.33.09.35-.23,0,.34.35.28.47.12,0,.1.1.1.06.25.14,0,.26-.07.24-.24.25.4.53-.33.66.2a5.74,5.74,0,0,1,1.2-.31c0,.34-.42,0-.43.36.36-.11.6-.4.94-.27.09.06-.07.14-.1.2.37-.1.68.11,1,0a.2.2,0,0,1-.08.08c.06,0,.14.07.15-.08l-.07,0c-.07-.23.32-.43.35-.55-.17.42.3.16,0,.69a.23.23,0,0,0,.12-.19c.06,0,.06.1,0,.21.23,0,.18-.22.38-.18,0,.07-.06.09-.09.17.12-.12.25-.25.41-.15,0,0,0,.1-.06.09.3,0,.57-.3.87-.09-.16.29.09.12,0,.4l.19,0,0-.15c.15,0,.32-.13.44,0l-.14.09h.29l-.13-.14c.18-.1,0-.35.24-.23,0,0,.15,0,.2.22h0c.09-.07.19-.15.29,0s-.1.29-.09.35c.13-.21.37,0,.52-.19a.46.46,0,0,0-.08.22l.11-.17a.19.19,0,0,1,0,.22c.2.09,0-.36.23-.15,0,0,0,0-.07.06.23.14.52,0,.72.15,0,.29-.21,0-.2.26.35,0,.78-.14,1.08,0l-.05-.05c.15-.37.19.26.4.12,0,0-.11.2-.09.16.2.12.47,0,.84,0l-.07.09c.11.12.33.15.46.23.06-.08.14,0,.13-.2.27.68.91-.07,1.16.51-.05,0-.14.06-.1.07h.35c0-.17,0-.11,0-.26a.25.25,0,0,1,.26-.11c-.18.06-.07.26,0,.37,0,0,0-.1.06-.15.08.34.12-.33.3-.06l0,.08c.1,0,.21-.11.3-.06,0,.21-.12.07-.17.22.13,0,.36-.29.43-.06-.07,0-.16,0-.23,0,.07.27.1.21.18.28h0l.19.17,0-.08c.31-.46.36,0,.68-.26-.3.25-.09.17-.17.38s.11.17.07.23c.15-.15.13.19.36,0,0,.07.11,0,0,.21.16,0,0-.13,0-.22.28-.18.42.44.82.19.3-.06.41-.28.69-.34,0,.14-.14.24-.14.24a.28.28,0,0,0,.35.11s0,.11,0,.2.14-.24.24-.1a1.28,1.28,0,0,1-.17.26c.13,0,.29-.14.43-.17,0,.13-.13.17-.19.24.15,0,.39,0,.48-.21l-.07-.09s0,.18-.07.2-.15-.11-.14-.18l.1,0c0-.43-.37,0-.54-.09l.16-.28-.25.2c0-.09,0-.27.1-.29-.08-.18-.14.08-.2-.12,0,0,0,0,0-.05l-.15.06c0-.06,0-.22.1-.16-.17-.23-.41.13-.43-.12h0c-.33,0-.09.21-.39.4v-.58l-.1.21a.11.11,0,0,1-.05-.14c-.16.12,0,.1-.11.23-.1-.25-.45,0-.38-.39-.1.16.11.17-.09.24.07-.39-.2,0-.29-.2.1-.18.2,0,.11-.25-.18.3-.25-.15-.38-.12-.08.26-.28,0-.5.06,0-.08-.33-.25-.48-.4v0c-.11.26-.28.15-.43.17,0-.16.09-.22.19-.27l-.13,0a.24.24,0,0,1-.2.11l.09-.18c-.18,0-.42.13-.6-.07-.06.18,0,.57-.24.62,0-.1.06-.27.13-.3s-.09.06-.12,0l.14-.14c-.08-.1-.09.12-.17.09s0-.12,0-.23,0,.08.1,0a.38.38,0,0,1-.17-.29c0,.09-.06.2-.13.2s0-.19-.09-.29c-.07.08-.15,0-.21.16,0,0,0-.12,0-.18s-.42-.09-.38.16v0h0c-.35.13-.57-.29-.89-.28l0-.07c-.19,0-.4-.06-.56.06s-.09-.16,0-.24c-.15,0-.19.1-.35-.07.17-.09,0-.13.17-.06-.16-.11-.17-.23-.41-.09.12-.16-.07-.26-.16-.23l.08.17A.66.66,0,0,1,103,73l.11-.23c-.29-.39-.77.34-.92-.22-.14.14.16.17,0,.34-.15-.07-.24-.46-.3-.47-.19-.19-.29.31-.5.16,0,.1,0,.33-.21.38s-.12-.41,0-.46,0,0,0,.06.14,0,.1-.15l0,.09c-.07-.11-.3-.15-.21-.28-.15,0-.09.13,0,.19-.18-.17-.33-.07-.53-.2,0,.05,0,.16,0,.15-.3-.17-.17.14-.4.14-.09-.16.11-.31-.13-.24-.12-.11,0-.24.08-.3-.23.13-.36-.18-.47-.23l.12,0a.28.28,0,0,1-.18,0l0,.19c-.06,0-.11-.06-.1-.13-.08.11,0,.3-.15.44-.07-.11-.27,0-.26-.19.25.13,0-.24.24-.24a.16.16,0,0,1-.16,0s0,0,0-.06c-.22-.25-.16.25-.42.2,0-.13,0-.26-.07-.24s0,.23-.1.32c-.15-.13-.19,0-.28,0l.1.06c-.06.13-.14.1-.26.13s.12-.06.08-.11c-.16.21-.26-.28-.46-.15-.08-.1,0-.24,0-.32-.22.15-.2-.2-.43-.09,0,.19.06.14-.11.3l.36-.08L97.3,72c.11,0,.24-.09.3,0-.13.13-.11.09-.08.25-.11-.29-.3.11-.45-.08l.05-.44c-.24-.21-.47.2-.79.06l.1.09c-.06.17-.21,0-.32.07a.4.4,0,0,0-.09-.3c0,.11-.24,0-.28.26l-.14-.19c-.27-.09-.32.41-.57.36.08-.16,0-.26.14-.38-.09,0-.17,0-.17.08,0-.1-.24.19-.32,0,0,.07,0,.22-.14.21a.2.2,0,0,1,0-.08c0,.08-.15.1-.06.27-.27-.48-.73.05-1-.33a3.47,3.47,0,0,1-.58.14s0-.07,0-.06c-.25-.12-.11.43-.38.3s.12-.15,0-.23c-.08-.48-.31.11-.52-.15l0,0c-.16-.14-.31.23-.54.23a.13.13,0,0,0,0-.08,1.08,1.08,0,0,1-.59.49c0-.2.08-.12,0-.3-.09,0,.08.3-.1.39-.08-.09-.23-.15-.28-.35l.17,0c-.14-.25-.23.06-.33,0V72c-.27.1-.21.39-.51.43l0,.08c-.09.32-.17-.13-.28.11l-.11-.28a4.15,4.15,0,0,1-.47.47,1.36,1.36,0,0,1,.34-.56c-.1,0-.35.1-.36.26,0,0,.07-.12.12-.09a.58.58,0,0,1-.41.47c-.12-.56-.57,0-.85-.36-.3.3-.74.14-1.15.31.3.37-.11.06.07.48-.09.06-.13.07-.15,0l-.38-.15c-.11-.11.06-.13,0-.22-.23,0-.16-.16-.34-.22.09.14,0,.25-.13.23l.24.14c-.21.33-.38-.27-.59.06l0-.17c-.12.14-.55.21-.57.6,0,0-.13-.14-.07-.2-.38.09-.65.67-1,.56v-.12c-.06.06,0,.24-.16.17s0-.11,0-.11-.11.25-.22.22l0-.14c-.39,0-.42.48-.68.66a.54.54,0,0,0-.58-.31v0c-.41.12-.58.5-.91.76-.35-.26-.83.14-1.27.06.08,0,.08.25,0,.3s-.17.3-.25,0h0c-.15-.26-.31-.13-.45-.09l.09.38c-.53-.42-.9.48-1.24,0-.07.12-.18.15-.24.27l0-.21a2,2,0,0,0-.68.14l0-.16c-.17,0-.08.64-.24.69L77,76.2c-.31.07-.66-.11-.9.21,0,0,0-.14,0-.16-.14,0-.58-.13-.46.3,0-.28-.31,0-.46.17v-.21c-.1.28-.1.36-.29.46s-.06-.16,0-.12c-.17-.09-.1.21-.3.12l.06-.14c-.16,0-.14.06-.21.23s-.31,0-.35-.22c0,.12-.09.28-.19.23a.22.22,0,0,1,0-.14c-.27-.13-.38.28-.57.07a.63.63,0,0,0,0-.13,3,3,0,0,1,.36,0c0-.19-.18-.21-.06-.49-.12.17-.34.47-.51.38a.64.64,0,0,1,0-.07l0,0s-.07,0-.11,0-.08-.06-.13-.06c0-.16-.19-.09-.27-.1,0,.21-.11.17,0,.35,0,0,0,0,.07,0l0,0H73c-.07.1-.14.19-.23.07l-.13.34c-.11-.3-.32-.46-.34-.64-.26.1-.58,0-.8.37-.08,0-.07-.12-.08-.18s.09,0,.12-.08c-.16.08-.43,0-.51.25-.16-.15.15-.24-.11-.23l0-.07c-.37-.54-1,.47-1.34-.21a.11.11,0,0,1,0,.11,2.33,2.33,0,0,0-.88-.39,1.05,1.05,0,0,1-.78-.55c-.11-.16-.22,0-.38,0l.09-.22-.3.13c-.33,0-.08-.67-.54-.61l-.06.15c-.07-.1-.34-.18-.22-.3s-.13.1-.11,0l.07-.09-.36,0c-.11-.21.34-.33.11-.55-.12,0-.5,0-.52.11a.19.19,0,0,1,0,.22l-.14,0c-.25.24-.58.43-.52.81l.31,0-.06.17-.15-.11c0,.18.12.12.24.1a.23.23,0,0,0,0,.2l.37-.12c-.06.12-.24.15-.18.3.17-.06.12-.3.31-.27,0,.19-.13.27,0,.24a.18.18,0,0,1-.16.11c.15,0,.25.15.4,0,0,.22.31.19.11.44a.63.63,0,0,1,.4-.07c-.37.23.3.22,0,.55.31-.23.51.13.81.08,0,0-.08,0-.09,0s.09.21.13.32c.15-.26.37-.23.55-.35,0,.32-.24.27-.31.53.1-.21.37-.09.4-.3,0,.21.06.12,0,.37.17-.32.14,0,.32-.17.1.24-.09.33.14.31C68.68,77.8,68.46,77.85,68.46,77.85Zm4.75.23Zm.39,0h-.17c0-.07,0-.15,0-.14S73.54,78,73.6,78.08Zm-.78-1.48c.05,0,.07,0,.08.06l-.1,0v0Z"/><path class="cls-2" d="M72.71,76.88h0l0,0,0-.07Z"/><path class="cls-2" d="M105.36,73.85h0s0,0,0,0Z"/><polygon class="cls-2" points="78.86 77.58 78.84 77.53 78.82 77.58 78.86 77.58"/><path class="cls-2" d="M107.11,75.11a.13.13,0,0,0,0,.06S107.12,75.14,107.11,75.11Z"/><path class="cls-2" d="M107.94,75.41l.1.1A.46.46,0,0,0,107.94,75.41Z"/><path class="cls-2" d="M108.57,75.7a.19.19,0,0,0,0-.09h0Z"/><path class="cls-2" d="M98.18,73.38h0C98.09,73.42,98.13,73.41,98.18,73.38Z"/><path class="cls-2" d="M101.37,73.47a.56.56,0,0,1-.13.07C101.3,73.57,101.34,73.59,101.37,73.47Z"/><polygon class="cls-2" points="94.73 73.39 94.73 73.39 94.71 73.39 94.73 73.39"/><path class="cls-2" d="M101.1,73.51a.11.11,0,0,0,.14,0A.17.17,0,0,0,101.1,73.51Z"/><path class="cls-2" d="M111.38,76.58h0s0,0,0,0Z"/><path class="cls-2" d="M111.42,76.56h0A0,0,0,0,0,111.42,76.56Z"/><path class="cls-2" d="M111.55,76.51l-.09,0S111.52,76.57,111.55,76.51Z"/><path class="cls-2" d="M110.53,76.25l0,.07A.15.15,0,0,0,110.53,76.25Z"/><path class="cls-2" d="M110.27,76.2s.11.2.21.18l0-.06C110.43,76.42,110.36,76.09,110.27,76.2Z"/><path class="cls-2" d="M109.43,75l.2.12c0-.09,0-.21.07-.2C109.49,74.59,109.7,75.09,109.43,75Z"/><path class="cls-2" d="M108.78,74.67c.13,0,0-.11,0-.15S108.71,74.58,108.78,74.67Z"/><path class="cls-2" d="M103.86,73.27l.06-.19C103.82,73.09,103.9,73.15,103.86,73.27Z"/><polygon class="cls-2" points="102.66 73.98 102.72 74.12 102.81 73.96 102.66 73.98"/><polygon class="cls-2" points="102.43 72.51 102.48 72.5 102.3 72.53 102.43 72.51"/><path class="cls-2" d="M93.7,71.56l0,.23C93.8,71.75,93.81,71.48,93.7,71.56Z"/><path class="cls-2" d="M90,72.29c-.07-.11-.19-.16-.23,0S89.91,72.33,90,72.29Z"/><polygon class="cls-2" points="79.27 75.49 79.32 75.39 79.21 75.5 79.27 75.49"/><path class="cls-3" d="M23.14,38.06h3.32l.27.47,2.66.26v-.73h1.13l.26.73H39v-.73h1.79l.33.47c2.32,0,5.11.26,7.7.26l.34.54c.66,0,1.39.26,2,.26l.33.53a1.29,1.29,0,0,0,.46.14v.86h.87V42h.73l.26.47a1.52,1.52,0,0,1,.54.13v1h.79l.27.46a1.42,1.42,0,0,1,.46.07H56V46h.73v3.18h.86v4.19l-.6.4c0,.73-.26,1.46-.26,2.12l-.47.33c0,.4-.2.73-.2,1.2h-.93v.8l-.46.33c0,.4-.27.93-.27,1.26H52.83v.8H52v.73H50.37v.93H48.84V63H47.32v.73H45.66v2.92h.73v.93h1.66l.26.46a1.49,1.49,0,0,1,.53.14v.93h.8l.27.46a1.94,1.94,0,0,1,.46.13v1h.8l.33.53a1.36,1.36,0,0,0,.46.13v1.73h.87l.33.53a1.51,1.51,0,0,1,.4.13v.87h.8v1.72h.79v1.53H56l.33.53a1.47,1.47,0,0,1,.4.14v1.72h.86v1.6h.73v1.59h1.59l.34.6c.39,0,.79.2,1.26.2V85h4v.87h.8v1.06l-.53.33c0,.4-.2.73-.2,1.2h-9.1V87.6h-.8l-.33-.39c-.06,0-.2-.07-.26-.07l-.14-1h-.79V84.55h-.87v-.86h-.73v-1.6h-.93l-.33-.4c-.07,0-.2-.13-.33-.13V79.7h-.73V78.17h-.8V76.51h-.8V74.85h-.86V73.26h-.73V71.67h-.86V70.14h-1.6v-.86h-.86V67.75h-.8v-.87h-.79l-.34-.39c-.39,0-1-.27-1.26-.27v-.93h-.86l-.27-.73H33.7v.8l-.86.33V83.42h.86L34,84c.39,0,.86.2,1.26.2V85H40v.87h1.66v1.06l-.47.27-.2.39H23.81l-.33-.39c-.07,0-.2-.14-.34-.14V85.88l.4-.27a1.76,1.76,0,0,1,.07-.6h1.13v-.73h2.32v-.86h1.6V43h-.8l-.4-.47c-.13,0-.26-.13-.4-.13v-1H22.35L22,41c-.13,0-.27-.14-.4-.14V39.59l.4-.26c0-.14.13-.4.13-.54h1.06Zm1.6,3.32h-.6v.87l.13.33h.14ZM51,54.73l.73-.26V47.76H51V45.44h-.73v-.87h-.8l-.4-.4c-.46,0-1-.26-1.26-.26V43H47l-.33-.47h.07s-2.52-.33-3-.33v-.8h-9.3v.87l-.46.33c0,.53-.2.86-.2,1.26h-.93V60.38h.86l.27.73H46.19v-.73h1.59v-.87h.86v-.79l.4-.27c0-.13.14-.4.14-.53h1.06v-.73l.4-.27Z"/><path class="cls-3" d="M71,38.06H96.72l.27.47c1.19,0,2.46.26,3.65.26l.33.54a1.47,1.47,0,0,1,.53.13v.93h1.6l.26.46a2.62,2.62,0,0,1,.53.14v1h.8l.27.47a1.56,1.56,0,0,1,.46.13v1.73h.87v.86h.79v1.59h.8V55l-.53.33c0,.46-.2.93-.2,1.26h-.86v1.53h-.87v1.73l-.46.33c0,.06-.07.2-.07.26l-1,.14v.73l-.53.4a1.52,1.52,0,0,1-.13.53H101.5V63H99.91v.73H98.38v.86H95.13v.73H92.74v.86H83.18v2.39l-.73.27v13h.73v1.59h1.59l.33.6c1.66,0,3.19.26,5.25.26l.26.47c.53,0,.93.2,1.33.2v.93h.8v1.06l-.53.33c0,.07-.14.2-.14.33H89.48v.87H85.37V87.6H81.52v.87H71.89V87.6H71V85.88h.93V85l.4-.26a1.47,1.47,0,0,1,.06-.47h4.19v-.86h.86v-.73l.73-.27V43.84H77.4V42.18H75.8v-.8H70.49v.8h-.26V40.65h-.8V39.59h.8v-.8l.39-.26Zm30.34,18.2L102,56V47.76h-.74V46.17h-.92l-.34-.4c-.06,0-.2-.14-.33-.14V44.57h-.8l-.33-.4c-.13,0-.33-.13-.53-.13V43H96.46l-.34-.47c-.39,0-1-.26-1.26-.26v-.87H84v.87l-.79.33V62H84l.27.73h9.1V62h3.18v-.86h1.53v-.73h1.66V58.72l.4-.27c0-.13.13-.4.13-.53h1.06Z"/></svg>
