<svg id="Layer_1" data-name="Layer 1" xmlns="http://www.w3.org/2000/svg" width="31.3mm" height="31.32mm" viewBox="0 0 88.72 88.78"><defs><style>.cls-1{fill:#1d1d1b;}</style></defs><path class="cls-1" d="M57.53,87.85V60.54H69L70.4,46.3H57.53V33.82s-.19-2.34,2.73-2.73a83.83,83.83,0,0,1,10.14,0V18H57.53s-13.65,2.73-14,13.46a132.6,132.6,0,0,0,0,14.82H31V60l12.1.19-.2,27.7L10,88.7s-10,0-10-10S0,10,0,10,.56-.07,10,0,78.7,0,78.7,0s10.18,1.43,10,10,0,68.67,0,68.67,0,9.89-10,10-21.3.06-21.3.06Z"/></svg>
