<svg id="Layer_1" data-name="Layer 1" xmlns="http://www.w3.org/2000/svg" width="34.53mm" height="34.34mm" viewBox="0 0 97.88 97.34"><defs><style>.cls-1{fill:none;}.cls-1,.cls-2{stroke:#1d1d1b;stroke-miterlimit:10;}.cls-2{fill:#1d1d1b;}</style></defs><path class="cls-1" d="M24.34,39.27H11V81.56c1.67,2,3,5.08,5.25,5.08H80.52s5.74-.24,5.87-6.06.6-41.31.6-41.31H73.45c3.65,9.41,1.91,19.92-4.53,27-7.6,8.42-18.28,8.3-19.9,8.25-.9,0-14.08.47-22-10.6C18.94,52.64,24,40,24.34,39.27Z"/><path class="cls-1" d="M65.2,48.32A15.45,15.45,0,0,1,48.85,64.67c-7.2-.45-16.34-6.44-16.34-16.35A16.34,16.34,0,0,1,48.85,32C58.52,32,64.88,40.64,65.2,48.32Z"/><rect class="cls-1" x="70.38" y="13" width="13.85" height="13.85" rx="2.96"/><path class="cls-1" d="M1.19,13V82.8s2.06,13.06,12.6,13.29,68.73,0,68.73,0,14-1.38,14.2-13.75,0-67.12,0-67.12S93.28,1.48,83.2,1.25s-68.26,0-68.26,0S1.19,1.84,1.19,13Z"/><path class="cls-2" d="M96.82,39c0-3,0-5.45-.06-8.44,0-2.33-.05-3.81-.09-5.84-.07-4.27-.1-6.43-.18-7.17A22.61,22.61,0,0,0,94.24,9c-3.4-6.1-10.64-7.5-11.42-7.64-1.51-.29-1.79-.12-8.73,0-3.61.08-6.58.1-8.56.1-2.64.12-6.69.28-11.65.34-1.66,0-7.68.08-17.4-.19-7-.19-14.06.45-21.08.12a14.91,14.91,0,0,0-9,2.11L6.32,4a3.51,3.51,0,0,0-.84.39c-2,1.24-3.35,2.45-3.65,4.88C1.62,11,1.2,13,1.61,14.76c0,1.62,0,2.93,0,3.79,0,4.27,0,6-.05,9.38,0,1,0,.67-.07,2.39,0,.85-.1,4.59-.14,8.64,0,3.8,0,4.21,0,8.49,0,5.57-.08,6-.11,11.18s0,8.88.06,12.06c.05,3.71.13,8,.27,12.76A16.43,16.43,0,0,0,2,85.33,14.47,14.47,0,0,0,6.73,93a12.38,12.38,0,0,0,2.13,1.37,15.26,15.26,0,0,0,7.07,1.55c6.73.14,10.1.21,10.45.2L38.64,96c6.38-.06,10.42,0,14.07.06,6.38.06,16.16,0,30.93-.32A16.26,16.26,0,0,0,86.57,95a16.82,16.82,0,0,0,3.51-1.88,17.56,17.56,0,0,0,3.73-3.55,9.3,9.3,0,0,0,1.88-2.94,9.52,9.52,0,0,0,.64-2.89c.43-6.18.16-14.95.16-14.95-.1-3.08.09-1.25.2-12.06,0-3.45,0-4,.06-9.78C96.8,42,96.82,41.57,96.82,39ZM70.13,14.22a3.18,3.18,0,0,1,.73-.83c1.9-1.52,6.13-1.23,6.13-1.23,3.92.27,5.88.4,6.91,1.43,0,0,2.26,2.25.85,10.67a8.78,8.78,0,0,1-.28,1.09,3,3,0,0,1-.25.62,2.84,2.84,0,0,1-.62.8c-5.06,1.11-8.94.9-10,.56a13.48,13.48,0,0,1-2.29-.95l-.57-.33a2.91,2.91,0,0,1-.56-.53c-.72-.91-.63-2-.58-3.29,0-1.06.16-4.64.15-6.26A3.25,3.25,0,0,1,70.13,14.22ZM32.7,45.16a14.6,14.6,0,0,1,1.69-4,16.9,16.9,0,0,1,3.78-4.52,18,18,0,0,1,5.38-3,19.21,19.21,0,0,1,12.16-.15h0a16,16,0,0,1,7.93,7.29,16.29,16.29,0,0,1,1.54,9.85,18.17,18.17,0,0,1-.79,3.16,18.71,18.71,0,0,1-3.55,6A19.17,19.17,0,0,1,57,63.18a16,16,0,0,1-4.58,1.45,17.74,17.74,0,0,1-4.82,0c-.88-.12-6.87-1-10.84-5.43a19.42,19.42,0,0,1-1.58-2.06,16.36,16.36,0,0,1-2.38-4.9A14.28,14.28,0,0,1,32.7,45.16ZM86.9,47c.21,3.27.37,10.25.22,17.59-.09,4.58-.32,10-.8,16a6.67,6.67,0,0,1-.12,1.5,3.75,3.75,0,0,1-2.55,3.15c-.27.15-.58.28-1.19.55a4.26,4.26,0,0,1-1,.35l-.63.1h0s-3.53.44-6.6.57c-5,.22-8.25-.39-12.11,0-.17,0-.55.07-1.06.11a27,27,0,0,1-5.18-.11,68.45,68.45,0,0,0-7.09.06c-2.27.07-3,.15-5.13.16-1.3,0-1.36,0-3.49-.06-1.88,0-1.76,0-5.5,0a40.55,40.55,0,0,0-5.55.11,14.83,14.83,0,0,1-2.06.21h-.95c-1.87,0-3.46-.17-4.62-.21-2.91-.09-2.48.35-3.68.08S14,86,13.83,85.94h0l-.23-.06a4.18,4.18,0,0,1-.54-.24l-.44-.82a1.84,1.84,0,0,1-1-1c0-.13,0-.18-.08-.43a5.92,5.92,0,0,0-.35-1.11c-.64-1.54-.37-23.35-.37-23.35,0-.67.05-4.73.05-9.46V47.53q0-3.87.07-7.71c2.14-.17,4.46-.28,6.92-.28s4.58.08,6.64.23A25.54,25.54,0,0,0,22.34,49a22.65,22.65,0,0,0,1,6.84,28.68,28.68,0,0,0,2.51,6,22.07,22.07,0,0,0,2.32,3.64,18.07,18.07,0,0,0,6.26,4.9A29.07,29.07,0,0,0,50,74.2a28.76,28.76,0,0,0,13.86-4.3,3.89,3.89,0,0,0,.71-.35A22.3,22.3,0,0,0,75,50.84a31.09,31.09,0,0,0-.48-6.09c-.11-.69-1.42-4.78-1.61-6.22l.48,0a32.09,32.09,0,0,0,5.3.08h8c0,1.18,0,3,.13,5.16C86.8,45.45,86.88,46.65,86.9,47Z"/></svg>
