<svg id="Layer_1" data-name="Layer 1" xmlns="http://www.w3.org/2000/svg" width="34.09mm" height="33.88mm" viewBox="0 0 96.63 96.04"><defs><style>.cls-1{fill:none;stroke:#fff;stroke-miterlimit:10;}.cls-2{fill:#fff;}</style></defs><path class="cls-1" d="M23.65,38.62H10.34V80.91S10.93,86,15.59,86H79.83s5.74-.24,5.87-6.06.6-41.31.6-41.31H72.76a26.23,26.23,0,0,1-4.53,27.06C60.62,74.1,50,74,48.33,73.92c-.9,0-14.08.48-22-10.59C18.24,52,23.35,39.33,23.65,38.62Z"/><circle class="cls-1" cx="48.16" cy="47.68" r="16.35"/><rect class="cls-1" x="69.69" y="12.35" width="13.85" height="13.85" rx="2.96"/><path class="cls-1" d="M.5,12.35v69.8S2.56,95.21,13.1,95.44s68.72,0,68.72,0S95.8,94.07,96,81.7s0-67.12,0-67.12S92.59.83,82.51.6,14.24.6,14.24.6.5,1.2.5,12.35Z"/><path class="cls-2" d="M96.16,43.16c.07-2.82,0-5.63-.09-8.45-.06-1.26-.31-2.69-.46-4.1,0-.22.08-.44.1-.67a28.28,28.28,0,0,0,.06-3.68,5.14,5.14,0,0,0-.15-1,5.89,5.89,0,0,0,.17-1c0-.45.07-.9.1-1.35.23-2.19.8-4.29.5-6.55a24.49,24.49,0,0,0-2.83-7.82C91.26,4.17,87.3.71,82.14.93,77.93.24,73.34.72,69.23.77a5.37,5.37,0,0,0-1,.12,3.25,3.25,0,0,0-.85-.1L33.55.64C24.65.6,13.76-1.2,5.73,3.45l-.09,0a5.19,5.19,0,0,0-.84.39C2.85,5.13,1.45,6.35,1.15,8.77.94,10.51.52,12.55.93,14.31a10.31,10.31,0,0,0,.19,3.78c0,.08.06.15.08.24C1.08,21.38,1,24.42.85,27.47A4,4,0,0,0,1,28.6a6.3,6.3,0,0,0-.1,2.56,4.91,4.91,0,0,0-.41,2L.34,46.89a4.85,4.85,0,0,0,.57,2.43,5.27,5.27,0,0,0-.44,2c-.19,10-.77,20.07.19,30a5.48,5.48,0,0,0,.53,1.89,6.72,6.72,0,0,0,.08,1.61,13.12,13.12,0,0,0,4.78,7.66,14.45,14.45,0,0,0,9.21,2.92,4.56,4.56,0,0,0,1.11-.14,5,5,0,0,0,2.22.43q7.83-.19,15.65,0a5.18,5.18,0,0,0,1.4-.16,4.82,4.82,0,0,0,2.29.42c6.15-.28,12.29-.62,18.44-.47a4.93,4.93,0,0,0,2.29-.47,4.9,4.9,0,0,0,2.66.73l19.34,0a5,5,0,0,0,2.3-.53,6.56,6.56,0,0,0,2.93-.77,18.22,18.22,0,0,0,1.88-1.2l1.63-.68a10.5,10.5,0,0,0,2-1.4,9.88,9.88,0,0,0,1.77-2.14,7.31,7.31,0,0,0,1.25-1.29,6.82,6.82,0,0,0,1.26-4.55,4.88,4.88,0,0,0,.29-2.12,243.66,243.66,0,0,1,.4-34.81,5,5,0,0,0-.29-2.17A5.17,5.17,0,0,0,96.16,43.16ZM69.81,14.25A3.15,3.15,0,0,1,71,12.55a4.86,4.86,0,0,0,.44-.49c3.3-.17,9.9-1.29,11.73,1.8,1.09,1.84,1,7.5.59,10.85a3.67,3.67,0,0,0-.69.83,38.72,38.72,0,0,1-13-.17,39.22,39.22,0,0,1-.84-7.08c0-1-.24-2-.2-3A3.29,3.29,0,0,0,69.81,14.25ZM31.7,44a27.88,27.88,0,0,1,4-7.72,4.47,4.47,0,0,0,1.48-.8,18.65,18.65,0,0,1,17.55-3.21h0c3,1.94,6.32,4.12,7.93,7.3a19.09,19.09,0,0,1,1.38,11.52c0,.16,0,.31,0,.46a3.52,3.52,0,0,0-.6,1,21.24,21.24,0,0,1-3.55,6,22.33,22.33,0,0,1-3.71,3.73c-1.61.3-3.21.75-4.79,1.13a17.62,17.62,0,0,1-3.75.5,3.61,3.61,0,0,0-1.07-.47c-4.14-1-8.06-2-10.84-5.43a2.9,2.9,0,0,0-1.15-.86q-1.39-3-2.81-6.09L31.7,51C31.47,48.68,31.07,46.37,31.7,44Zm54.64,2.3a242.89,242.89,0,0,0-.46,33.59,7.18,7.18,0,0,0-.52,1.52,6,6,0,0,0-.21.86c-.08.33-.18.8-.2.95l-.25.49c0-.09-.2.09-.19.16a12.77,12.77,0,0,0-1.52.63,6.65,6.65,0,0,0-.86.5l-.41.27a4.43,4.43,0,0,0-1.64.52l-18.76,0a5,5,0,0,0-2.3.53,4.88,4.88,0,0,0-2.65-.79c-6.15-.15-12.29.19-18.44.47a5.92,5.92,0,0,0-1.46.27,5,5,0,0,0-2.23-.53q-7.83-.18-15.65,0a5.28,5.28,0,0,0-1.29.19,5,5,0,0,0-2-.48,9.26,9.26,0,0,1-2-.17c-.16-.06-.24-.08-.24-.07l-.17-.09c-.09,0-.73-.51-.79-.52a4.32,4.32,0,0,1-.62-.79c-.08-.11-.16-.28-.21-.35a9.13,9.13,0,0,1-.31-1.25,4.26,4.26,0,0,0-.26-.81v0c-1-10-.38-20-.19-30a4.85,4.85,0,0,0-.55-2.43,5.13,5.13,0,0,0,.42-2l.06-7.71c4.55.14,9.33-.75,13.78-.49-.07.14-.15.28-.21.43-1.1,2.92-2.23,6.09-2.2,9.27S23,55,23.82,58.09a3.48,3.48,0,0,0,.88,1.56,14.38,14.38,0,0,0,2.92,5.26c1.64,1.93,3.75,4.16,6.25,4.85l.1,0a.34.34,0,0,1,.09.08c8.33,6.27,20.75,4.53,29.21-.6A3.65,3.65,0,0,0,64,68.9,22.3,22.3,0,0,0,74.39,50.19a32.77,32.77,0,0,0-.48-6.09c-.11-.69-1.43-4.77-1.61-6.22l.48,0a32.12,32.12,0,0,0,5.29.09h8c.1,1.73.17,3.46.13,5.16a5.18,5.18,0,0,0,.37,2.08A5.78,5.78,0,0,0,86.34,46.32Z"/></svg>
